<?xml version="1.0" encoding="utf-8"?>
<!-- Generator: Adobe Illustrator 25.0.0, SVG Export Plug-In . SVG Version: 6.00 Build 0)  -->
<svg version="1.1" id="Layer_1" opacity="0.28" xmlns="http://www.w3.org/2000/svg" xmlns:xlink="http://www.w3.org/1999/xlink"
	 x="0px" y="0px" viewBox="0 0 380 240" style="enable-background:new 0 0 380 240;" xml:space="preserve">
<style type="text/css">
	.st0{fill:#F5D693;}
	.st1{fill:#FEA377;}
</style>
<g>
	<path class="st0" d="M328.98,239.88c-10.2-5.13-20.65-9.75-30.49-15.62c-29.79-17.77-54.63-40.9-75-68.86
		c-1.81-2.48-3.69-3.3-6.6-3.39c-33.44-1.04-65.41-8.67-95.73-22.64c-30.2-13.92-56.53-33.39-78.95-57.96
		C26.72,54.43,13.65,35.72,3.65,14.95c-0.92-1.92-1.49-4.07-3.21-5.54C0.43,6.42-1.5-8.4,0-9.9S380,0.44,380,0.44V240
		C380,240,330.23,239.88,328.98,239.88z"/>
	<path class="st1" d="M40.38-9.9C152.22-9.9,272.33-2.89,384.17-3c3.42,0-4.16,4.01-4.17,7.43c-0.12,77.16-0.12,154.31,0,231.47
		c0.01,3.42-0.65,4.22-4.09,4.09c-8.64-0.31-17.31-0.1-25.96-0.1c-2.07-2.04-4.83-2.86-7.34-4.08c-8.82-4.29-17.16-9.39-25.17-14.99
		c-17.58-12.28-33.73-26.19-47.67-42.56c-6.76-7.94-13.55-15.92-18.83-24.89c-2.64-4.49-5.85-6.72-10.73-7.21
		c-21.64-2.19-42.6-6.91-63-14.72C145.27,119.2,117.33,101,92.93,77.3c-17.32-16.83-31.88-35.9-43.5-57.07
		C45.95,13.9,41.86-2.6,40.38-9.9z"/>
</g>
<path class="st0" d="M92,86"/>
<line class="st0" x1="462.26" y1="26.21" x2="348.41" y2="15.1"/>
<path class="st0" d="M2.26-0.73"/>
</svg>
