<?xml version="1.0" encoding="utf-8"?>
<!-- Generator: Adobe Illustrator 25.0.0, SVG Export Plug-In . SVG Version: 6.00 Build 0)  -->
<svg version="1.1" id="Layer_1" xmlns="http://www.w3.org/2000/svg" xmlns:xlink="http://www.w3.org/1999/xlink" x="0px" y="0px"
	 viewBox="0 0 363 283" style="enable-background:new 0 0 363 283;" xml:space="preserve">
<style type="text/css">
	.st0{fill:#FE8041;}
	.st1{fill:#FEDD59;}
	.st2{fill:#FEDD5A;}
	.st3{fill:#DC2E44;}
	.st4{fill:#A00620;}
	.st5{fill:#FDDB58;}
	.st6{fill:#E9586D;}
	.st7{fill:#FDDA58;}
	.st8{fill:#7BB054;}
	.st9{fill:#AB8BD1;}
	.st10{fill:#A1542A;}
	.st11{fill:#9F5329;}
	.st12{fill:#9667C5;}
	.st13{fill:#FEC74C;}
	.st14{fill:#64903B;}
</style>
<g>
	<path class="st0" d="M175.78,242.58c-21.59,4.35-43.14,9.07-65.16,10.71c-13.95,1.04-27.84,0.67-41.51-3.18
		c-22.2-6.25-35.7-20.77-41.58-42.77c-3.88-14.52-4.84-29.45-6.08-44.33c0.47-3.38-0.62-6.66-0.67-10.01
		c-0.12-8.46,0.37-16.87,1.46-25.25c1.44-11.07,4.61-21.63,9.92-31.42C39.91,82.03,51.25,71,64.53,61.86
		c18.81-12.94,39.94-20.41,61.84-25.99c10.79-2.75,21.78-4.53,32.72-6.55c18.24-2.81,36.59-4.52,55.03-4.24
		c34.25,0.52,67.97,3.61,99.56,18.94c30.54,14.83,46.1,47.57,43.72,77.8c-0.78,9.88-3.97,19.19-7.36,28.43
		c-1.59,1.51-2.09,3.64-3.09,5.48c-6.95,12.81-15.44,24.29-27.31,33.09c-15.63,11.59-33.04,19.81-50.91,27.12
		C238.74,228.2,207.29,235.52,175.78,242.58z M269.93,79.3c-0.28-0.26-0.55-0.52-0.83-0.77c-0.31-0.2-0.64-0.38-0.93-0.61
		c-6.46-5.41-11.96-3.59-14.18,4.57c-2.09,7.65-2.27,15.44-1.96,23.26c0.11,2.93,1.02,5.7,4.48,6.5c2.09,2.42,4.8,1.71,7.18,1.01
		c2.02-0.6,1.69-2.77,1.64-4.51c-0.04-1.42,0.01-2.74,1.78-3.21c1.9-0.51,3.78-1.12,5.66-1.68c1.8,1.21,1.63,4.4,4.54,4.5
		c0.83,1.41,1.87,1.65,3.43,1.03c3.9-1.55,4.97-3.26,4.84-8.37c1.77,1,3.55,1.99,5.32,2.99c3.63,2.25,6.79,2.24,8.94-0.66
		c5.82-7.86,10.22-16.47,12.44-26.06c0.5-2.18,0.01-4.28-2.78-4.78c-0.48-0.39-0.95-0.79-1.44-1.18c-4.58-3.62-6.39-3.11-8.19,2.31
		c-0.31,0.94-0.55,1.92-0.96,2.82c-1.81,3.96-2.54,4.07-5.64,1.12c-1.07-1.02-2.31-1.86-3.45-2.8c-3.9-3.21-5.18-3.07-7.99,0.91
		c-2.84,4.02-2.8,4.55,0.85,7.68c1.04,0.89,2.2,1.62,3.33,2.39c4.97,3.38,5.41,6.04,1.5,10.64c-1.19,1.4-2.17,2.7-1.91,4.61
		c-3.05-4.92-5.44-10.23-8.94-14.88c-0.8-1.06-1.31-2.46-3.01-2.36l0.02,0.02c0.14-2.17-0.97-3.34-3.01-3.76l0.03,0.03
		c-0.26-0.26-0.52-0.52-0.79-0.79L269.93,79.3z M189.14,101.75c-0.26-0.27-0.52-0.54-0.77-0.81c-8.89-7.27-21.18-5.64-28.43,3.77
		c-0.5-0.26-0.99-0.52-1.49-0.77c-0.76-1.79-2.33-1.59-3.81-1.51c-5.03,0.29-9.52,5.16-9.68,10.46c-0.05,1.66,0.31,3.16-1.89,4.25
		c-2.28,1.13-1.51,4.17,1.14,5.54c0.58,0.86,1.44,0.63,2.25,0.57c1.48,2.51,1.8,5.35,2.36,8.13c0.43,2.1,1,4.22,3.78,4.33
		c1.3,2.98,3.51,1.56,5.34,0.93c1.99-0.68,2.29-2.44,1.81-4.32c-0.62-2.4-1.31-4.77-1.9-7.18c-0.45-1.81-0.47-3.54,1.8-4.2
		c2.22-0.65,2.78-2.23,2.56-4.3c0.8,1.79,1.35,3.75,2.44,5.35c2.29,3.38,2.74,8.16,7.34,9.8c1.81,3.58,4.51,1.41,6.7,0.8
		c2.67-0.75,0.99-2.78,0.68-4.31c-0.53-2.64-2.47-5.6,1.67-7.14c3.3,1.69,6.03,4.34,9.56,5.63c3.1,2.8,5.27,2.64,7.57-0.52
		c0.72-0.99,1.46-1.98,2.19-2.96c0.99,0.3,1.98,0.6,2.97,0.89c0.72,1.55,2.12,1.45,3.5,1.51c3.14,0.14,6.16-0.53,9.19-1.19
		c2.6-0.57,4.19-2.03,4.4-4.78c0.27-0.03,0.54-0.06,0.82-0.08c0.33,1.74,1.7,1.59,2.92,1.5c2.59-0.2,5.17-0.51,7.76-0.74
		c9.7-0.86,16.75-6.02,18.89-14.23c1.05-4.04,1.13-8.13-2.61-11.19l0.03,0.03c-0.26-0.31-0.53-0.62-0.79-0.93
		c-6.94-8.2-15.66-11.16-26.18-8.98c-6.35,1.32-6.36,1.26-6.92,7.73c-0.82-1.07-1.23-2.69-3.12-2.35c-0.69-1.44-1.66-2.31-3.43-2.32
		c-3.74-0.02-7.42,0.17-11.01,1.4c-1.81,0.62-3.11,1.44-3.17,3.56c-0.07,2.1,0.1,4.09,2.46,4.86c1.86,0.61,2.51,2.1,2.59,3.69
		c0.22,4.36,1.24,8.56,2.13,12.8c0.16,0.75,0.49,1.6-0.29,2.02c-2.34,1.26-1.48,3.08-1.02,4.86c-0.65-0.04-1.3-0.08-1.95-0.12
		c-1.34-2.99-5.02-1.75-6.88-3.8c-0.27-0.26-0.53-0.51-0.8-0.77l0.02,0.03c0.03-1.92,0.92-3.5,1.87-5.09
		c2.17-3.63,1.58-6.39-1.89-9.16l0.04,0.03c-0.26-0.27-0.53-0.53-0.79-0.8L189.14,101.75z M129.26,180.25l0.03,0.03
		c0.03-0.65-0.13-1.21-0.78-1.52c0,0,0.02,0.02,0.02,0.02c-0.15-0.47-0.2-1.01-0.48-1.38c-8.62-11.68-17.17-23.42-25.94-34.99
		c-3.88-5.12-7.22-10.67-11.77-15.28c-1.92-3.37-4.63-3.05-7.72-1.85c-2.31,0.9-3.81,3.26-6.48,3.39c1.74-5.26,1.31-7.54-1.58-9.52
		c-3.46-2.37-7.14,0.1-10.74-0.36c0.19-1.47,1.24-1.72,2.06-2.21c1.54-0.91,2.62-2.14,1.62-3.95c-0.98-1.77-2.7-1.49-4.3-0.94
		c-3.68,1.25-5.86,4.99-5,8.49c0.77,3.15,4.51,5.12,8.39,4.36c0.97-0.19,1.91-0.54,2.87-0.79c0.74-0.19,1.6-0.35,1.84,0.6
		c0.17,0.68-0.54,1.03-1.09,1.29c-0.89,0.42-1.85,0.72-2.72,1.2c-5.99,3.28-6.13,8.78-0.35,12.37c-4.35,5.85-8.19,12-11.25,18.62
		c-8.12-1.13-16.13-0.83-23.95,1.89c-1.9,0.66-4.19,1.2-3.44,3.93c0.84,3.04,3.14,2.1,5.19,1.45c6.38-2,12.83-2.91,19.47-1.48
		c-1.18,4.23-2.83,8.37-2.5,12.9c0.21,2.87,1.24,4.99,4.44,5.33c0.44,0.21,0.85,0.53,1.31,0.62c23.91,4.84,47.83,9.66,71.74,14.47
		c1.95,0.39,3.68,0.14,4.87-1.69c3.24-2.89,4.03-5.86,1.89-8.68c-1.47-1.93-2.79-4.07-4.88-5.49
		C129.78,180.82,129.52,180.54,129.26,180.25z M302.85,120.46c-0.32-0.26-0.64-0.52-0.97-0.78c-1.08-1.02-2.17-2.03-3.25-3.05
		c-5.42-5.11-11.83-3.24-13.79,3.94c-2.15,7.87-2.49,15.89-2.15,23.95c0.12,2.92,0.91,5.72,4.36,6.58c1.82,2.25,4.21,2.16,6.63,1.44
		c2.55-0.75,1.71-2.97,1.67-4.67c-0.04-1.72,0.4-2.74,2.18-3.2c2.01-0.51,3.97-1.26,5.94-1.9c1.65,1.23,1.66,4.34,4.64,4.03
		c0.39,2.56,1.95,2.17,3.56,1.34c2.58-1.33,5.54-2.68,4.34-6.35c-1.85-5.69-4.56-10.98-8.73-15.39l0.02,0.03
		c-0.02-0.99-0.41-1.61-1.51-1.53l0.02,0.03c0.13-1.18-0.05-2.16-1.52-2.27l0.03,0.03c-0.26-0.26-0.52-0.53-0.78-0.79l0.04,0.04
		c0.06-0.68-0.1-1.24-0.78-1.54L302.85,120.46z M278.15,133.18c-0.27-0.33-0.54-0.65-0.81-0.98c-8.14-8.28-17.76-10.61-28.88-7.37
		c-2.05,0.6-3.26,1.24-3.38,3.59c-0.5,9.75,1.74,19.09,3.96,28.44c0.36,1.52,1.58,1.75,2.9,1.76c0.3,1.83,1.75,1.51,2.92,1.43
		c2.6-0.18,5.18-0.5,7.77-0.74c9.21-0.86,16.61-6.31,18.75-14.12c1.25-4.54,0.97-8.88-3.26-12.04L278.15,133.18z M190.66,172.8
		l-0.06-0.04c6.07,3.17,13.97,0.7,17.44-5.79c4.74-8.89,3.71-18.21,1.44-27.53c-0.39-1.6-0.98-3.15-3.05-3.22
		c-1.67-2.64-3.6-1.44-5.41-0.28c-1.96,1.26-4.18,2.41-3.23,5.49c0.65,2.12,1.31,4.28,1.59,6.47c0.63,5.01,0.62,10.69-4.05,12.34
		c-1.68-4.28-1.14-8.67-0.53-13.03c0.3-2.19,0.16-3.71-2.55-3.61c-2.24-3.71-5.58-2.06-8.61-1.72c-2.99,0.34-3.19,2.84-3.37,5
		c-0.41,4.96,0.55,9.82,1.31,14.7c0.77,4.95,3.2,8.46,7.7,10.58C189.72,172.37,190.19,172.58,190.66,172.8z M320.94,142.96
		c4.27,2.6,6.76,2.65,9.22-0.42c5.67-7.09,9.44-15.25,12.08-23.85c0.75-2.43,1.63-5.87-2.31-7.26c-5.7-4.54-7.37-4.14-9.86,2.37
		c-2.39,6.23-3.33,6.41-8.09,1.53c-5.09-5.23-6.54-5.1-10.28,0.27c-2.1,3.02-1.14,5.06,1.41,6.92c1.51,1.1,3.11,2.06,4.64,3.13
		c3.24,2.27,3.68,4.12,1.73,7.57c-0.67,1.18-1.54,2.26-2.39,3.32c-1.29,1.59-1.04,3.02,0.43,4.22
		C318.57,141.6,319.8,142.23,320.94,142.96z M162.27,157.9c-0.4-2.34,0.24-3.5,2.92-3.98c3.71-0.66,7.38-0.49,11.08-0.57
		c1.06-0.02,2.26,0.34,2.96-0.95c1.13-2.09-0.52-6.09-3.04-7.31c-1.12-1.72-2.76-2.18-4.75-2.31c-5.95-0.41-11.5,1.08-17.04,3.01
		c-3.43,1.19-4.96,3.32-4.94,6.9c0.03,7.61,1.4,14.98,3.83,22.17c0.78,2.31,2.05,4.25,4.58,4.99c2.09,2.14,6.54,2.65,9.05,0.86
		c2.86-2.05,0.13-3.93-0.36-5.87c-0.18-0.72-0.43-1.44-0.79-2.08c-1.7-3.13-1.26-5.02,2.72-5.29c1.2-0.08,2.37-0.7,3.54-1.11
		c1.85-0.65,2.25-2.09,2.16-3.87c-0.09-1.76,0.14-3.64-2.38-3.88c-1.21-1.92-3.07-1.63-4.88-1.41
		C165.37,157.4,163.82,157.66,162.27,157.9z M241.58,130.98c-1.75-1.99-4.03-2.11-6.12-1.09c-4.68,2.28-2.87,7.26-4.13,11.47
		c-2.96-3.17-6.13-5.49-9.2-7.94c-2.43-1.95-4.97-2.15-7.64-0.91c-2.55,1.17-2.73,3.69-2.87,6.02c-0.4,7.1,0.5,14.08,2.21,20.96
		c0.63,2.52,1.83,4.62,4.62,5.3c2.23,2.72,5.17,2.46,7.73,1.11c2.58-1.36,0.85-3.75,0.25-5.6c-1.6-4.98-2.34-10.09-2.75-15.26
		c4.63,4.01,8.21,8.86,11.31,14.09c0.9,1.53,1.71,3.04,3.67,3.34c2.57,2.44,5.49,1.51,8.31,0.74c1.32-0.36,1.42-1.61,0.93-2.79
		c-3.56-8.42-4.01-17.32-4.07-26.28C243.81,132.53,243.66,131.1,241.58,130.98z M43.91,185.39c0.99-1.44,1.91-1.32,2.75-1.38
		c1.82-0.14,2.68-1.14,2.59-2.95c-0.1-1.91-1.47-2.55-3.02-2.69c-3.77-0.35-7.73,2.39-8.24,5.56c-0.58,3.6,1.8,6.56,6.07,7.62
		c1.59,0.39,3.39,0.27,5.04,1.84c-4.79,1.23-11.02-0.1-11.79,6.51c-0.84,7.27,6,6.74,10.25,8.54c-0.27,1.12-0.97,1.08-1.54,1.12
		c-2.31,0.19-4.03,1.14-3.48,3.72c0.51,2.43,2.68,2.28,4.55,2.07c3.92-0.44,6.62-3.06,6.67-6.32c0.05-3.48-2.47-6.18-6.57-6.94
		c-1.47-0.27-3.18,0.17-4.66-1.99c5.09-0.68,11.29,0.37,11.89-6.5C55.02,186.45,48.33,187.15,43.91,185.39z M102.3,115.27
		c0-1.52-0.01-2.02,0-2.52c0.04-1.63,0.58-3.05,2.31-3.39c1.77-0.35,2.27,1.21,2.85,2.42c0.48,1.01,0.7,2.13,1.18,3.13
		c0.59,1.22,1.63,1.94,3.03,1.67c1.47-0.28,1.87-1.4,1.97-2.78c0.23-3.44-2.47-8.14-5.53-9.51c-6.06-2.72-12.28,2.5-11.56,10.02
		c1.01,10.48,5.4,19.83,10.46,28.88c0.77,1.38,1.94,2.34,3.7,1.42c1.7-0.89,1.73-2.46,1.18-3.88c-0.8-2.08-1.95-4.03-2.91-6.05
		C105.87,128.16,103.11,121.52,102.3,115.27z M126.97,148.61c0.1-3.36-2.08-6-5.12-6.22c-2.78-0.2-5.8,2.69-5.85,5.59
		c-0.04,2.88,2.48,5.42,5.41,5.45C124.43,153.47,126.89,151.33,126.97,148.61z M37.23,125.83c0.06,3.2,2.69,5.83,5.7,5.68
		c2.41-0.12,5.45-3.39,5.44-5.85c-0.01-2.73-2.73-5.22-5.74-5.26C39.73,120.36,37.18,122.93,37.23,125.83z M35.72,170.09
		c-0.03,2.85,1.51,4.47,3.96,4.6c2.26,0.12,4-1.24,4.24-3.73c0.26-2.69-1.27-4.37-3.73-4.59C37.71,166.14,36.09,167.65,35.72,170.09
		z M75.47,198.07c0.04-2.94-1.39-4.49-3.74-4.65c-2.57-0.17-4.3,1.44-4.4,4.02c-0.09,2.39,1.43,4.16,3.79,4.27
		C73.59,201.83,75.29,200.39,75.47,198.07z M56.77,138.83c-0.09-2.23-1.57-3.8-3.9-3.78c-2.43,0.02-4.31,1.55-4.26,4.21
		c0.04,2.37,1.62,4.11,3.97,4.09C55,143.32,56.78,141.93,56.77,138.83z M32.92,136.82c-2.28-0.28-3.67,1.21-3.8,3.6
		c-0.14,2.56,1.44,4.47,3.94,4.47c2.34,0,4.18-1.41,4.17-4.23C37.23,138.01,35.84,136.86,32.92,136.82z M47.75,149.66
		c-0.06-2.61-1.39-3.91-3.98-3.82c-2.47,0.09-4.1,1.47-4.15,3.87c-0.06,2.38,1.55,4.18,3.91,4.17
		C45.92,153.87,47.71,152.44,47.75,149.66z"/>
	<path class="st1" d="M175.78,242.58c31.51-7.07,62.95-14.38,92.95-26.65c17.87-7.31,35.28-15.53,50.91-27.12
		c11.86-8.8,20.36-20.28,27.31-33.09c1-1.84,1.51-3.97,3.09-5.48c-1.86,10.7-5.25,20.97-9.1,31.08
		c-4.64,12.18-10.74,23.53-19.51,33.34c-8.45,9.45-18.57,16.46-30.04,21.7c-16.46,7.51-33.86,10.54-51.79,11.29
		C218.12,248.56,196.89,246.34,175.78,242.58z"/>
	<path class="st2" d="M159.1,29.32c-10.94,2.03-21.93,3.81-32.72,6.55c-21.91,5.58-43.03,13.05-61.84,25.99
		C51.25,71,39.91,82.03,32.16,96.32c-5.31,9.8-8.49,20.35-9.92,31.42c-1.09,8.39-1.57,16.8-1.46,25.25
		c0.05,3.36,1.13,6.63,0.67,10.01c-7.25-10.54-10.71-22.25-11.08-34.99c-0.29-10.23-0.35-20.38,3.03-30.24
		c5.78-16.86,16.33-30.23,29.74-41.68c16.53-14.11,36.17-20.24,57.19-23.27C119.84,30.02,139.44,29.26,159.1,29.32z"/>
	<path class="st3" d="M133.03,195.28c-1.19,1.83-2.92,2.08-4.87,1.68c-23.92-4.82-47.83-9.64-71.74-14.47
		c-0.46-0.09-0.87-0.41-1.31-0.62c5.24-1.67,9.24-5.1,13.07-8.89c5.24-5.19,9.04-11.42,13.24-17.39
		c11.74,8.14,22.49,17.56,33.9,26.12C121.27,186.16,126.8,191.18,133.03,195.28z"/>
	<path class="st4" d="M81.42,155.58c-4.19,5.96-8,12.2-13.24,17.39c-3.83,3.79-7.83,7.23-13.07,8.89c-3.21-0.34-4.23-2.46-4.44-5.33
		c-0.33-4.54,1.32-8.67,2.5-12.9c3.53,0,6.83,1.05,10.04,2.36c1.93,0.78,3.73,1.09,4.61-1.25c0.79-2.1-0.63-3.29-2.4-3.9
		c-3.15-1.08-6.34-2.01-9.52-3c3.06-6.62,6.9-12.77,11.25-18.62c3.15,1.15,6.21-1.04,9.42-0.46c-0.12,1.69-1.45,1.82-2.34,2.35
		c-1.49,0.89-2.28,2.05-1.42,3.7c0.9,1.74,2.31,1.92,4.11,1.15c3.75-1.6,5.87-4.67,5.31-8.04c-0.54-3.24-3.17-4.9-7.71-4.85
		c-0.5,0.01-1,0.01-1.49,0.01c0.36-1.08,1.88-1.51,1.63-2.93l-0.03,0.03c0.54,0.03,0.8-0.22,0.78-0.76l-0.02,0.02
		c0.54,0.03,0.81-0.22,0.77-0.77l-0.02,0.02c2.67-0.14,4.18-2.5,6.48-3.39c3.09-1.2,5.8-1.53,7.72,1.85
		c0.38,4.31-0.67,8.45-1.6,12.59C86.3,145.01,83.86,150.3,81.42,155.58z"/>
	<path class="st5" d="M221.23,119.65c-0.27,0.03-0.54,0.06-0.82,0.08c-1.83-0.62-1.65-2.76-2.88-3.84c0,0,0.01,0.02,0.01,0.02
		c-1.02-6.48-2.03-12.96-3.05-19.43c-0.06-1.22-0.12-2.43-0.17-3.65c0.55-6.46,0.57-6.41,6.92-7.73
		c10.52-2.18,19.24,0.77,26.18,8.98c-0.73,1.16-0.04,1.11,0.79,0.93c0,0-0.03-0.03-0.03-0.03c0.02,3.04,1.37,5.92,0.38,9.12
		c-2.18,7.06-6.8,11.28-13.76,13.38C230.36,118.84,225.69,118.52,221.23,119.65z M236.56,97.24c-1.09-0.91-2.37-1.29-3.74-1.53
		c-7.39-1.34-8.82,0.02-7.31,7.36c0.32,1.55-0.49,4.17,2.65,3.96c2.51,0.16,4.94-0.11,7.24-1.2
		C239.09,104.08,239.61,100.22,236.56,97.24z"/>
	<path class="st5" d="M251.93,158.62c-1.31-0.01-2.54-0.24-2.9-1.76c-2.22-9.35-4.46-18.7-3.96-28.44c0.12-2.35,1.33-2.99,3.38-3.59
		c11.13-3.24,20.74-0.9,28.88,7.37c-0.75,1.17-0.05,1.14,0.81,0.98c0,0-0.03-0.03-0.03-0.03c-0.02,0.36-0.13,0.76-0.03,1.08
		c3,9.86-1.33,18.26-11.12,21.81C262.09,157.81,256.93,157.69,251.93,158.62z M266.52,136.13c-0.53-0.3-1.02-0.72-1.58-0.89
		c-2.87-0.86-6.19-1.73-8.51,0.1c-2.11,1.67-0.73,4.88-0.4,7.36c0.19,1.43-0.14,3.8,2.59,3.69c2.82,0.35,5.4-0.48,7.8-1.82
		C270.11,142.53,270.12,138.68,266.52,136.13z"/>
	<path class="st6" d="M81.42,155.58c2.44-5.29,4.89-10.58,7.33-15.86c5.07,4.96,10.21,9.86,15.17,14.92
		c2.33,2.37,5.2,4.29,6.71,7.41c-2.16,0.26-4.21,0.66-4.58,3.36c-0.34,2.45,0.78,4.35,2.99,4.86c3.17,0.72,4.65-1.45,5.33-4.26
		c2.75,2.67,5.42,5.42,8.27,7.97c1.88,1.69,3.05,4.29,5.89,4.81c0,0-0.02-0.02-0.02-0.02c-0.04,0.66,0.13,1.21,0.78,1.52
		c0,0-0.03-0.03-0.03-0.03c0.26,0.29,0.52,0.57,0.78,0.86c2.08,1.42,3.41,3.56,4.88,5.49c2.15,2.82,1.35,5.79-1.89,8.68
		c-6.23-4.1-11.76-9.11-17.71-13.58C103.9,173.14,93.15,163.72,81.42,155.58z"/>
	<path class="st5" d="M218.45,164.78c-2.79-0.67-3.99-2.78-4.62-5.3c-1.72-6.88-2.62-13.86-2.21-20.96
		c0.13-2.34,0.32-4.85,2.87-6.02c2.68-1.23,5.21-1.03,7.64,0.91c3.06,2.45,6.23,4.77,9.2,7.94c1.27-4.21-0.54-9.19,4.13-11.47
		c2.09-1.02,4.37-0.89,6.12,1.09c-0.44,8.81-0.02,17.52,2.94,25.95c1.56,4.45,0.99,5.24-3.64,5.46c-0.74,0.03-1.48,0.06-2.22,0.08
		c-1.97-0.3-2.77-1.82-3.67-3.34c-3.09-5.23-6.68-10.09-11.31-14.09c-0.57-0.75-0.97-1.71-2.35-1.75c-0.33,5.09,0.92,9.87,2.27,14.6
		C225.51,164.63,225.59,164.61,218.45,164.78z"/>
	<path class="st5" d="M171.98,131.8c-4.6-1.64-5.06-6.42-7.34-9.8c-1.08-1.6-1.64-3.56-2.44-5.35c-0.25-0.49-0.49-0.99-0.74-1.48
		c0.02-1.92-0.42-3.71-1.55-5.29c0.18-1.26,0.07-2.48-0.52-3.64c0.18-0.51,0.36-1.02,0.54-1.53c7.25-9.41,19.54-11.04,28.43-3.77
		c0.26,0.27,0.52,0.54,0.77,0.81c0,0-0.06-0.06-0.06-0.06c0.26,0.27,0.53,0.53,0.79,0.8c0,0-0.04-0.03-0.04-0.03
		c0.94,3.1,0.97,5.95-1.28,8.7c-1.73,2.11-1.07,4.15,1.3,5.55c0,0-0.02-0.03-0.02-0.03c0.27,0.26,0.53,0.51,0.8,0.77
		c1.86,2.04,5.54,0.81,6.88,3.8c-1.57,2.77-2.51,6.32-6.92,5.54c-3.53-1.29-6.27-3.93-9.57-5.63c-1.14-1.33-2.55-2.17-4.13-1
		c-1.31,0.96-1.38,2.5-0.86,4.03c0.27,0.81,0.29,1.75,0.71,2.46c2.11,3.54,0.02,4.49-2.94,4.95
		C173.2,131.68,172.59,131.73,171.98,131.8z M180.09,105.44c-2.38-2.02-5.82-2.12-7.88-0.03c-2.13,2.16-1.17,4.26,0.47,6.23
		c2.8,1.47,4.97-0.18,6.85-1.77C180.73,108.86,181.76,107.15,180.09,105.44z"/>
	<path class="st5" d="M287.05,151.1c-3.45-0.87-4.23-3.66-4.36-6.58c-0.34-8.07,0-16.09,2.15-23.95c1.96-7.18,8.38-9.05,13.79-3.94
		c1.08,1.02,2.16,2.03,3.25,3.05c0.32,0.26,0.64,0.52,0.97,0.78c0,0-0.04-0.04-0.04-0.04c-0.13,0.71,0.17,1.21,0.78,1.54
		c0,0-0.04-0.04-0.04-0.04c0.26,0.26,0.52,0.53,0.78,0.79c0,0-0.03-0.03-0.03-0.03c0.08,1.04,0.62,1.78,1.52,2.27
		c0,0-0.02-0.03-0.02-0.03c0.16,0.85,0.36,1.66,1.51,1.53c0,0-0.02-0.03-0.02-0.03c0.54,3.9,3.53,6.61,4.95,10.1
		c2.34,5.78,1.63,7.83-4.12,10.3c-2.98,0.31-2.99-2.81-4.64-4.03c-0.18-2.34-1.11-3.05-3.36-1.82c-1.5,0.82-3.18,1.4-4.84,1.83
		c-1.58,0.41-2.18,1.15-2.25,2.82C292.8,151.12,292.73,151.12,287.05,151.1z M296.08,137.65c4.17-0.8,4.34-1.15,1.91-4.33
		c-0.36-0.47-0.91-0.79-1.38-1.18c-0.55-1-0.61-2.48-2.5-2.49c-0.31,2.1-0.65,4.15-0.9,6.22
		C292.92,138.42,293.78,139.23,296.08,137.65z"/>
	<path class="st5" d="M277.31,108.36c-2.91-0.1-2.74-3.29-4.54-4.5c-0.17-1.91-0.67-3.12-2.99-1.97c-1.76,0.87-3.64,1.57-5.53,2.05
		c-1.55,0.4-1.82,1.25-1.88,2.65c-0.25,5.53-0.29,5.52-5.85,5.65c-3.47-0.8-4.37-3.57-4.48-6.5c-0.3-7.82-0.12-15.61,1.96-23.26
		c2.23-8.16,7.73-9.99,14.18-4.57c0.28,0.24,0.62,0.41,0.93,0.61c0.28,0.26,0.55,0.52,0.83,0.77c0,0-0.05-0.04-0.05-0.04
		c0.26,0.26,0.52,0.52,0.79,0.79c0,0-0.03-0.03-0.03-0.03c0.51,1.65,1.59,2.84,3.01,3.76c0,0-0.02-0.02-0.02-0.02
		c2.37,4.03,4.86,7.99,7.07,12.11C284.32,102.62,283.74,104.51,277.31,108.36z M265.46,98.77c1.27,0.01,3-0.23,3.21-1.25
		c0.36-1.73-1.18-2.98-2.44-4.11c-0.89-0.83-0.83-2.65-2.8-2.71c-0.31,2.2-0.65,4.26-0.89,6.34
		C262.23,99.71,263.3,100.19,265.46,98.77z"/>
	<path class="st5" d="M189.25,172.16c-4.5-2.12-6.94-5.62-7.7-10.58c-0.76-4.89-1.72-9.75-1.31-14.7c0.18-2.16,0.38-4.66,3.37-5
		c3.03-0.34,6.37-1.99,8.61,1.72c-0.08,1.47-0.02,2.97-0.27,4.41c-0.59,3.43-0.86,6.86,0.49,10.14c0.46,1.11,0.55,3.29,2.87,2.09
		c4.67-1.66,4.68-7.33,4.05-12.34c-0.27-2.19-0.94-4.35-1.59-6.47c-0.95-3.08,1.28-4.24,3.23-5.49c1.81-1.16,3.75-2.36,5.41,0.28
		c2.07,6.07,2.61,12.35,2.09,18.67c-0.84,10.3-5.48,17.97-17.92,17.87c0,0,0.06,0.04,0.06,0.04
		C190.38,172.15,189.81,172.17,189.25,172.16z"/>
	<path class="st7" d="M157.85,179.85c-2.53-0.74-3.8-2.68-4.58-4.99c-2.43-7.19-3.79-14.56-3.83-22.17
		c-0.02-3.58,1.51-5.71,4.94-6.9c5.54-1.92,11.09-3.41,17.04-3.01c1.99,0.14,3.63,0.59,4.75,2.31c1.66,6.91,1.6,6.86-5.46,6.38
		c-3.2-0.22-6.43,0.22-9.56,1.07c-3.08,0.84-1.12,3.07-1.16,4.62c-0.05,1.83,1.17,1.49,2.26,0.73c1.55-0.24,3.1-0.5,4.66-0.7
		c1.81-0.23,3.67-0.52,4.88,1.4c-0.05,5.53-0.4,6.08-7.02,7.32c-2.59,0.49-3.18,1.4-2.18,3.67c0.4,0.91,0.7,1.85,1.06,2.77
		c2.74,6.89,2.59,7.1-5.08,7.4C158.35,179.79,158.1,179.83,157.85,179.85z"/>
	<path class="st5" d="M285.59,101.01c-0.25-1.91,0.72-3.21,1.91-4.61c3.91-4.6,3.47-7.27-1.5-10.64c-1.13-0.77-2.3-1.51-3.33-2.39
		c-3.65-3.13-3.69-3.66-0.85-7.68c2.81-3.98,4.09-4.12,7.99-0.91c1.14,0.94,2.39,1.78,3.45,2.8c3.09,2.96,3.82,2.85,5.64-1.12
		c0.41-0.9,0.65-1.88,0.96-2.82c1.8-5.42,3.61-5.93,8.19-2.31c0.49,0.38,0.96,0.79,1.44,1.18c0.04,1.11,0.32,2.28,0.08,3.34
		c-2.21,9.83-6.62,18.61-12.88,26.48c-1.53,1.92-3.66,1.83-5.8,1.68c-1.77-1-3.55-1.99-5.32-2.99
		C285.58,101.01,285.59,101.01,285.59,101.01z"/>
	<path class="st5" d="M320.94,142.96c-1.15-0.73-2.37-1.37-3.42-2.22c-1.47-1.2-1.72-2.64-0.43-4.22c0.86-1.06,1.73-2.14,2.39-3.32
		c1.95-3.44,1.51-5.3-1.73-7.57c-1.53-1.07-3.13-2.03-4.64-3.13c-2.55-1.85-3.51-3.89-1.41-6.92c3.73-5.37,5.18-5.5,10.28-0.27
		c4.75,4.88,5.7,4.7,8.09-1.53c2.49-6.51,4.16-6.91,9.86-2.37c0.49,1.72,0.34,3.4-0.11,5.12c-2.16,8.24-6.15,15.61-10.71,22.71
		C327.23,142.19,324.59,143.75,320.94,142.96z"/>
	<path class="st7" d="M203.33,124.19c-0.99-0.3-1.98-0.6-2.97-0.89c-0.3-0.65-0.6-1.29-0.89-1.94c-0.46-1.78-1.32-3.6,1.02-4.86
		c0.78-0.42,0.45-1.27,0.29-2.02c-0.89-4.23-1.9-8.44-2.13-12.8c-0.08-1.6-0.72-3.09-2.59-3.69c-2.37-0.77-2.53-2.75-2.46-4.86
		c0.07-2.13,1.37-2.94,3.17-3.56c3.59-1.23,7.26-1.42,11.01-1.4c1.78,0.01,2.74,0.88,3.43,2.32c0.2,1.53,2.29,3.82-0.28,4.38
		c-4.19,0.92-3.38,3.66-3.01,6.21c0.55,3.79,1.45,7.52,2.22,11.28c0.31,1.54,1.03,2.53,2.82,1.96c1.69,0.06,3.47-0.13,4.59,1.59
		c0,0-0.01-0.02-0.01-0.02c-0.11,5.57-0.51,6.13-6.13,7.25C208.75,123.68,206.03,123.86,203.33,124.19z"/>
	<path class="st8" d="M43.91,185.39c4.43,1.76,11.12,1.06,10.5,8.2c-0.59,6.87-6.79,5.82-11.89,6.5c1.48,2.16,3.19,1.72,4.66,1.99
		c4.1,0.77,6.63,3.46,6.57,6.94c-0.05,3.26-2.74,5.87-6.67,6.32c-1.87,0.21-4.04,0.36-4.55-2.07c-0.54-2.58,1.17-3.53,3.48-3.72
		c0.57-0.05,1.27,0,1.54-1.12c-4.25-1.8-11.09-1.27-10.25-8.54c0.76-6.61,6.99-5.28,11.79-6.51c-1.65-1.58-3.46-1.45-5.04-1.84
		c-4.27-1.05-6.66-4.01-6.07-7.62c0.51-3.17,4.47-5.91,8.24-5.56c1.55,0.14,2.93,0.78,3.02,2.69c0.09,1.81-0.76,2.81-2.59,2.95
		C45.81,184.07,44.9,183.95,43.91,185.39z"/>
	<path class="st9" d="M73.03,133.07c0.5,0,1,0,1.49-0.01c4.53-0.06,7.17,1.6,7.71,4.85c0.56,3.37-1.56,6.44-5.31,8.04
		c-1.8,0.77-3.21,0.58-4.11-1.15c-0.85-1.64-0.07-2.81,1.42-3.7c0.89-0.53,2.22-0.66,2.34-2.35c-3.2-0.58-6.27,1.62-9.42,0.46
		c-5.79-3.59-5.64-9.09,0.35-12.37c0.87-0.47,1.82-0.77,2.72-1.2c0.55-0.26,1.26-0.61,1.09-1.29c-0.24-0.95-1.1-0.8-1.84-0.6
		c-0.96,0.25-1.9,0.6-2.87,0.79c-3.88,0.76-7.63-1.2-8.39-4.36c-0.85-3.5,1.33-7.24,5-8.49c1.6-0.54,3.32-0.83,4.3,0.94
		c1,1.81-0.08,3.04-1.62,3.95c-0.82,0.49-1.87,0.74-2.06,2.21c3.59,0.46,7.28-2.01,10.74,0.36c2.89,1.98,3.32,4.26,1.58,9.52
		c0,0,0.02-0.02,0.02-0.02c-0.5,0.01-0.76,0.27-0.77,0.77c0,0,0.02-0.02,0.02-0.02c-0.5,0.01-0.8,0.23-0.78,0.76
		c0,0,0.03-0.03,0.03-0.03c-2.23,0.52-4.31,1.31-5.99,3.13C70.38,134.45,71.68,133.42,73.03,133.07z"/>
	<path class="st5" d="M152.6,135.72c-2.78-0.11-3.35-2.22-3.78-4.33c-0.56-2.78-0.88-5.62-2.36-8.13c-0.4-1.58-1.15-1.74-2.25-0.57
		c-2.65-1.38-3.43-4.41-1.14-5.54c2.2-1.09,1.84-2.6,1.89-4.25c0.17-5.3,4.65-10.17,9.68-10.46c1.47-0.09,3.05-0.29,3.81,1.51
		c0.18,0.77,0.36,1.53,0.54,2.3c-0.75,2.26-3.56,2.06-4.66,3.91c-0.63,1.07-1.4,2.22-0.79,3.42c0.66,1.29,1.7,0.21,2.57,0.02
		c1.4,0,2.83-0.07,3.55,1.52c0.07,1.46,0.58,3.33-1.4,3.74c-4.28,0.89-3.54,3.58-2.66,6.47c0.44,1.42,0.91,2.84,1.23,4.29
		C157.85,134.13,157.27,134.95,152.6,135.72z"/>
	<path class="st8" d="M102.3,115.27c0.81,6.25,3.57,12.89,6.68,19.41c0.96,2.02,2.11,3.97,2.91,6.05c0.55,1.42,0.52,2.99-1.18,3.88
		c-1.76,0.92-2.93-0.03-3.7-1.42c-5.06-9.05-9.45-18.4-10.46-28.88c-0.72-7.52,5.5-12.74,11.56-10.02c3.07,1.37,5.76,6.07,5.53,9.51
		c-0.09,1.37-0.5,2.49-1.97,2.78c-1.4,0.27-2.44-0.45-3.03-1.67c-0.48-1-0.71-2.13-1.18-3.13c-0.57-1.21-1.08-2.77-2.85-2.42
		c-1.73,0.34-2.27,1.76-2.31,3.39C102.29,113.25,102.3,113.75,102.3,115.27z"/>
	<path class="st3" d="M110.63,162.05c-1.51-3.12-4.38-5.04-6.71-7.41c-4.96-5.06-10.1-9.96-15.17-14.92
		c0.93-4.15,1.98-8.28,1.6-12.59c4.54,4.61,7.89,10.16,11.77,15.28c8.77,11.57,17.32,23.3,25.94,34.99
		c0.28,0.38,0.33,0.92,0.48,1.38c-2.84-0.52-4-3.13-5.89-4.81c-2.85-2.55-5.52-5.3-8.27-7.97
		C113.8,164.05,112.58,162.71,110.63,162.05z"/>
	<path class="st9" d="M55.9,157.84c3.18,0.99,6.37,1.92,9.52,3c1.78,0.61,3.19,1.8,2.4,3.9c-0.87,2.34-2.68,2.03-4.61,1.25
		c-3.22-1.31-6.51-2.36-10.04-2.36c-6.63-1.43-13.09-0.53-19.47,1.48c-2.05,0.65-4.35,1.58-5.19-1.45
		c-0.75-2.72,1.54-3.27,3.44-3.93C39.77,157.01,47.78,156.71,55.9,157.84z"/>
	<path class="st10" d="M190.59,172.76c12.44,0.1,17.09-7.57,17.92-17.87c0.51-6.32-0.02-12.6-2.09-18.67
		c2.07,0.07,2.67,1.62,3.05,3.22c2.26,9.32,3.3,18.64-1.44,27.53C204.57,173.46,196.66,175.93,190.59,172.76z"/>
	<path class="st11" d="M290.9,104c2.14,0.15,4.27,0.24,5.8-1.68c6.26-7.87,10.67-16.65,12.88-26.48c0.24-1.05-0.04-2.22-0.08-3.34
		c2.79,0.51,3.28,2.61,2.78,4.78c-2.21,9.59-6.62,18.2-12.44,26.06C297.69,106.24,294.53,106.25,290.9,104z"/>
	<path class="st11" d="M320.94,142.96c3.65,0.79,6.28-0.77,8.17-3.72c4.55-7.1,8.54-14.47,10.71-22.71c0.45-1.72,0.6-3.4,0.11-5.12
		c3.94,1.39,3.06,4.83,2.31,7.26c-2.64,8.61-6.41,16.76-12.08,23.85C327.7,145.61,325.21,145.57,320.94,142.96z"/>
	<path class="st11" d="M221.23,119.65c4.46-1.13,9.12-0.82,13.57-2.16c6.96-2.1,11.58-6.32,13.76-13.38
		c0.99-3.21-0.36-6.09-0.38-9.12c3.74,3.05,3.67,7.14,2.61,11.19c-2.14,8.21-9.2,13.37-18.89,14.23c-2.59,0.23-5.17,0.55-7.76,0.74
		C222.94,121.24,221.57,121.39,221.23,119.65z"/>
	<path class="st10" d="M251.93,158.62c5-0.93,10.16-0.81,15.03-2.58c9.79-3.55,14.12-11.95,11.12-21.81
		c-0.1-0.33,0.02-0.72,0.03-1.08c4.23,3.16,4.51,7.49,3.26,12.04c-2.14,7.81-9.55,13.26-18.75,14.12c-2.59,0.24-5.18,0.57-7.77,0.74
		C253.68,160.13,252.23,160.45,251.93,158.62z"/>
	<path class="st12" d="M126.97,148.61c-0.08,2.72-2.54,4.85-5.55,4.82c-2.94-0.03-5.45-2.57-5.41-5.45c0.04-2.9,3.07-5.78,5.85-5.59
		C124.9,142.62,127.07,145.26,126.97,148.61z"/>
	<path class="st13" d="M37.23,125.83c-0.05-2.9,2.49-5.46,5.4-5.43c3.01,0.04,5.73,2.52,5.74,5.26c0.01,2.46-3.03,5.73-5.44,5.85
		C39.92,131.66,37.29,129.03,37.23,125.83z"/>
	<path class="st10" d="M238.66,162.48c0.74-0.03,1.48-0.05,2.22-0.08c4.63-0.22,5.2-1.01,3.64-5.46
		c-2.96-8.43-3.38-17.14-2.94-25.95c2.07,0.12,2.23,1.55,2.24,3.16c0.06,8.96,0.51,17.86,4.07,26.28c0.5,1.17,0.4,2.43-0.93,2.79
		C244.16,163.98,241.23,164.92,238.66,162.48z"/>
	<path class="st10" d="M157.85,179.85c0.25-0.03,0.49-0.07,0.74-0.08c7.67-0.3,7.82-0.52,5.08-7.4c-0.37-0.92-0.67-1.87-1.06-2.77
		c-0.99-2.27-0.4-3.18,2.18-3.67c6.62-1.24,6.96-1.79,7.02-7.32c2.52,0.24,2.29,2.12,2.38,3.88c0.09,1.78-0.31,3.22-2.16,3.87
		c-1.17,0.41-2.34,1.03-3.54,1.11c-3.98,0.27-4.43,2.16-2.72,5.29c0.35,0.65,0.61,1.37,0.79,2.08c0.49,1.94,3.22,3.82,0.36,5.87
		C164.4,182.5,159.94,181.99,157.85,179.85z"/>
	<path class="st10" d="M152.6,135.72c4.67-0.78,5.25-1.59,4.23-6.11c-0.33-1.45-0.8-2.87-1.23-4.29c-0.88-2.88-1.62-5.57,2.66-6.47
		c1.98-0.41,1.47-2.28,1.4-3.74c0.6,0.02,1.2,0.04,1.8,0.06c0.25,0.49,0.49,0.99,0.74,1.48c0.23,2.07-0.34,3.65-2.56,4.3
		c-2.27,0.66-2.24,2.39-1.8,4.2c0.59,2.4,1.29,4.78,1.9,7.18c0.48,1.88,0.18,3.64-1.81,4.32C156.11,137.28,153.9,138.7,152.6,135.72
		z"/>
	<path class="st10" d="M277.31,108.36c6.43-3.84,7.01-5.74,3.4-12.48c-2.21-4.12-4.7-8.08-7.07-12.11c1.7-0.1,2.22,1.3,3.01,2.36
		c3.5,4.65,5.89,9.96,8.94,14.88c0,0-0.01,0-0.01,0c0.13,5.11-0.93,6.82-4.84,8.37C279.18,110.01,278.14,109.76,277.31,108.36z"/>
	<path class="st10" d="M212.96,114.33c-1.79,0.57-2.51-0.42-2.82-1.96c-0.76-3.76-1.67-7.49-2.22-11.28
		c-0.37-2.55-1.18-5.3,3.01-6.21c2.57-0.56,0.48-2.86,0.28-4.38c1.89-0.34,2.3,1.28,3.12,2.35c0.06,1.22,0.12,2.43,0.17,3.65
		c-3.92,0.51-4.62,2.45-3.91,6.32C211.3,106.66,212.24,110.47,212.96,114.33z"/>
	<path class="st10" d="M218.45,164.78c7.13-0.18,7.06-0.16,5.15-6.89c-1.34-4.73-2.6-9.51-2.27-14.6c1.38,0.03,1.78,1,2.35,1.75
		c0.42,5.18,1.16,10.29,2.75,15.26c0.59,1.85,2.33,4.23-0.25,5.6C223.62,167.25,220.69,167.5,218.45,164.78z"/>
	<path class="st11" d="M162.27,157.9c-1.09,0.75-2.31,1.1-2.26-0.73c0.04-1.55-1.93-3.78,1.16-4.62c3.13-0.85,6.36-1.29,9.56-1.07
		c7.07,0.48,7.12,0.53,5.46-6.38c2.52,1.22,4.17,5.22,3.04,7.31c-0.69,1.29-1.9,0.92-2.96,0.95c-3.7,0.08-7.37-0.1-11.08,0.57
		C162.51,154.4,161.87,155.56,162.27,157.9z"/>
	<path class="st14" d="M35.72,170.09c0.37-2.44,1.99-3.95,4.48-3.72c2.46,0.22,3.99,1.9,3.73,4.59c-0.24,2.49-1.99,3.85-4.24,3.73
		C37.23,174.56,35.7,172.94,35.72,170.09z"/>
	<path class="st10" d="M256.51,112.25c5.56-0.13,5.6-0.13,5.85-5.65c0.06-1.4,0.33-2.26,1.88-2.65c1.9-0.48,3.78-1.18,5.53-2.05
		c2.33-1.16,2.82,0.06,2.99,1.97c-1.89,0.56-3.76,1.18-5.66,1.68c-1.76,0.47-1.82,1.79-1.78,3.21c0.05,1.74,0.39,3.91-1.64,4.51
		C261.31,113.96,258.6,114.67,256.51,112.25z"/>
	<path class="st14" d="M75.47,198.07c-0.18,2.33-1.88,3.77-4.36,3.65c-2.36-0.11-3.88-1.89-3.79-4.27c0.1-2.58,1.84-4.19,4.4-4.02
		C74.08,193.58,75.51,195.12,75.47,198.07z"/>
	<path class="st14" d="M56.77,138.83c0.01,3.09-1.78,4.49-4.18,4.51c-2.35,0.03-3.93-1.72-3.97-4.09c-0.05-2.66,1.83-4.18,4.26-4.21
		C55.21,135.03,56.68,136.6,56.77,138.83z"/>
	<path class="st10" d="M308.13,146.81c5.75-2.47,6.47-4.52,4.12-10.3c-1.42-3.5-4.41-6.2-4.95-10.1c4.17,4.41,6.88,9.7,8.73,15.39
		c1.2,3.67-1.76,5.02-4.34,6.35C310.08,148.99,308.52,149.38,308.13,146.81z"/>
	<path class="st13" d="M32.92,136.82c2.92,0.04,4.3,1.2,4.31,3.84c0.01,2.82-1.84,4.23-4.17,4.23c-2.5,0-4.08-1.91-3.94-4.47
		C29.26,138.02,30.64,136.54,32.92,136.82z"/>
	<path class="st13" d="M47.75,149.66c-0.03,2.78-1.83,4.21-4.23,4.22c-2.36,0.01-3.96-1.79-3.91-4.17c0.06-2.4,1.68-3.78,4.15-3.87
		C46.36,145.74,47.68,147.04,47.75,149.66z"/>
	<path class="st11" d="M287.05,151.1c5.67,0.01,5.74,0.02,5.97-5.48c0.07-1.67,0.67-2.41,2.25-2.82c1.67-0.43,3.34-1.01,4.84-1.83
		c2.25-1.23,3.18-0.52,3.36,1.82c-1.98,0.64-3.93,1.38-5.94,1.9c-1.78,0.45-2.22,1.47-2.18,3.2c0.04,1.7,0.87,3.91-1.67,4.67
		C291.26,153.26,288.88,153.35,287.05,151.1z"/>
	<path class="st10" d="M171.98,131.8c0.61-0.07,1.22-0.13,1.82-0.22c2.97-0.46,5.05-1.41,2.94-4.95c-0.42-0.71-0.44-1.65-0.71-2.46
		c-0.52-1.53-0.45-3.06,0.86-4.03c1.58-1.16,2.99-0.32,4.13,1c-4.14,1.54-2.2,4.5-1.67,7.14c0.31,1.54,1.99,3.57-0.68,4.31
		C176.49,133.22,173.78,135.39,171.98,131.8z"/>
	<path class="st10" d="M203.33,124.19c2.69-0.34,5.42-0.52,8.07-1.05c5.62-1.12,6.02-1.68,6.13-7.25c1.24,1.07,1.05,3.21,2.88,3.84
		c-0.2,2.76-1.79,4.21-4.4,4.78c-3.03,0.66-6.05,1.33-9.19,1.19C205.45,125.65,204.05,125.74,203.33,124.19z"/>
	<path class="st10" d="M195.31,160.24c-2.31,1.2-2.41-0.97-2.87-2.09c-1.35-3.29-1.08-6.71-0.49-10.14
		c0.25-1.44,0.19-2.94,0.27-4.41c2.71-0.1,2.86,1.42,2.55,3.61C194.17,151.57,193.63,155.96,195.31,160.24z"/>
	<path class="st11" d="M189.86,116.71c-2.37-1.4-3.03-3.43-1.3-5.55c2.24-2.75,2.22-5.6,1.28-8.7c3.47,2.77,4.07,5.53,1.89,9.16
		C190.78,113.21,189.89,114.79,189.86,116.71z"/>
	<path class="st10" d="M199.47,121.36c0.3,0.65,0.6,1.29,0.89,1.94c-0.73,0.99-1.47,1.97-2.19,2.96c-2.3,3.16-4.48,3.31-7.57,0.52
		c4.41,0.78,5.35-2.78,6.92-5.54C198.17,121.28,198.82,121.32,199.47,121.36z"/>
	<path class="st10" d="M273.65,83.79c-1.42-0.92-2.51-2.11-3.01-3.76C272.68,80.45,273.79,81.62,273.65,83.79z"/>
	<path class="st7" d="M144.21,122.69c1.1-1.16,1.86-1,2.25,0.57C145.65,123.32,144.79,123.56,144.21,122.69z"/>
	<path class="st10" d="M305.83,124.94c-0.91-0.49-1.44-1.23-1.52-2.27C305.78,122.78,305.96,123.76,305.83,124.94z"/>
	<path class="st10" d="M307.32,126.44c-1.15,0.13-1.35-0.68-1.51-1.53C306.91,124.84,307.3,125.46,307.32,126.44z"/>
	<path class="st7" d="M158.99,106.24c-0.18-0.77-0.36-1.53-0.54-2.3c0.5,0.26,0.99,0.52,1.49,0.77c-0.18,0.51-0.36,1.02-0.54,1.52
		c0-0.01-0.21-0.19-0.21-0.19L158.99,106.24z"/>
	<path class="st10" d="M303.6,121.95c-0.62-0.33-0.91-0.83-0.78-1.54C303.5,120.71,303.65,121.28,303.6,121.95z"/>
	<path class="st11" d="M248.22,95.02c-0.83,0.17-1.52,0.22-0.79-0.93C247.69,94.4,247.95,94.71,248.22,95.02z"/>
	<path class="st10" d="M189.25,172.16c0.56,0.01,1.13-0.01,1.41,0.64C190.19,172.58,189.72,172.37,189.25,172.16z"/>
	<path class="st3" d="M129.29,180.28c-0.65-0.31-0.81-0.86-0.78-1.52C129.16,179.07,129.32,179.62,129.29,180.28z"/>
	<path class="st10" d="M278.15,133.18c-0.86,0.16-1.56,0.19-0.81-0.98C277.61,132.52,277.88,132.85,278.15,133.18z"/>
	<path class="st10" d="M302.85,120.46c-0.32-0.26-0.64-0.52-0.97-0.78C302.21,119.94,302.53,120.2,302.85,120.46z"/>
	<path class="st10" d="M304.35,122.7c-0.26-0.26-0.52-0.53-0.78-0.79C303.82,122.17,304.08,122.43,304.35,122.7z"/>
	<path class="st11" d="M189.87,102.49c-0.26-0.27-0.53-0.53-0.79-0.8C189.34,101.96,189.61,102.23,189.87,102.49z"/>
	<path class="st11" d="M189.14,101.75c-0.26-0.27-0.51-0.54-0.77-0.81C188.62,101.22,188.88,101.49,189.14,101.75z"/>
	<path class="st11" d="M190.63,117.44c-0.27-0.26-0.53-0.51-0.8-0.77C190.1,116.93,190.37,117.19,190.63,117.44z"/>
	<path class="st10" d="M270.68,80.05c-0.26-0.26-0.52-0.52-0.79-0.79C270.15,79.52,270.41,79.79,270.68,80.05z"/>
	<path class="st10" d="M269.93,79.3c-0.28-0.26-0.55-0.52-0.83-0.77C269.38,78.79,269.66,79.05,269.93,79.3z"/>
	<path class="st3" d="M130.04,181.11c-0.26-0.29-0.52-0.57-0.78-0.86C129.52,180.54,129.78,180.82,130.04,181.11z"/>
	<path class="st0" d="M73.03,133.07c-1.35,0.35-2.65,1.38-4.36,0.2c1.68-1.82,3.76-2.61,5.99-3.13
		C74.91,131.56,73.39,131.99,73.03,133.07z"/>
	<path class="st0" d="M74.63,130.16c-0.01-0.54,0.28-0.76,0.78-0.76C75.43,129.94,75.17,130.19,74.63,130.16z"/>
	<path class="st0" d="M75.39,129.42c0.01-0.5,0.27-0.76,0.77-0.77C76.2,129.21,75.93,129.45,75.39,129.42z"/>
	<path class="st0" d="M236.56,97.24c3.06,2.99,2.54,6.85-1.15,8.59c-2.3,1.09-4.74,1.36-7.24,1.2
		C227.54,97.25,227.54,97.25,236.56,97.24z"/>
	<path class="st0" d="M212.96,114.33c-0.71-3.86-1.66-7.67-2.37-11.53c-0.71-3.87,0-5.81,3.91-6.32c1.02,6.48,2.03,12.96,3.05,19.44
		C216.43,114.2,214.65,114.39,212.96,114.33z"/>
	<path class="st11" d="M236.56,97.24c-9.02,0.02-9.02,0.02-8.4,9.78c-3.14,0.22-2.33-2.41-2.65-3.96c-1.51-7.34-0.08-8.71,7.31-7.36
		C234.19,95.95,235.47,96.33,236.56,97.24z"/>
	<path class="st0" d="M266.52,136.13c3.6,2.54,3.58,6.39-0.11,8.44c-2.4,1.33-4.98,2.16-7.8,1.82c0.02-0.62,0.1-1.25,0.06-1.86
		C258.11,136.13,258.11,136.13,266.52,136.13z"/>
	<path class="st10" d="M266.52,136.13c-8.42,0-8.41,0-7.85,8.39c0.04,0.62-0.03,1.24-0.06,1.86c-2.72,0.11-2.39-2.26-2.59-3.69
		c-0.33-2.47-1.71-5.69,0.4-7.36c2.32-1.83,5.64-0.96,8.51-0.1C265.51,135.41,266,135.83,266.52,136.13z"/>
	<path class="st13" d="M110.63,162.05c1.94,0.66,3.16,2,3.74,3.95c-0.67,2.81-2.15,4.98-5.33,4.26c-2.21-0.5-3.33-2.4-2.99-4.86
		C106.43,162.71,108.48,162.31,110.63,162.05z"/>
	<path class="st0" d="M180.09,105.44c1.67,1.7,0.64,3.41-0.56,4.43c-1.88,1.59-4.05,3.24-6.85,1.77
		C173.34,107.41,175.7,105.22,180.09,105.44z"/>
	<path class="st10" d="M158.99,106.24l0.21-0.19c0,0,0.21,0.18,0.21,0.19c0.58,1.16,0.69,2.38,0.51,3.64
		c-2.01,0.47-3.32,1.67-3.8,3.7c-0.87,0.2-1.9,1.27-2.57-0.02c-0.62-1.2,0.15-2.35,0.79-3.42
		C155.43,108.3,158.24,108.5,158.99,106.24z"/>
	<path class="st11" d="M180.09,105.44c-4.39-0.23-6.75,1.97-7.41,6.2c-1.64-1.97-2.6-4.07-0.47-6.23
		C174.27,103.32,177.71,103.42,180.09,105.44z"/>
	<path class="st0" d="M156.11,113.59c0.49-2.04,1.79-3.23,3.8-3.7c1.12,1.58,1.57,3.37,1.55,5.29c-0.6-0.02-1.2-0.04-1.8-0.06
		C158.94,113.52,157.51,113.59,156.11,113.59z"/>
	<path class="st10" d="M296.08,137.65c-2.29,1.58-3.15,0.77-2.86-1.77c0.24-2.07,0.59-4.13,0.9-6.22c1.88,0.01,1.94,1.48,2.5,2.49
		C295.83,133.93,296.17,135.81,296.08,137.65z"/>
	<path class="st0" d="M296.08,137.65c0.09-1.84-0.24-3.73,0.54-5.5c0.47,0.39,1.02,0.71,1.38,1.18
		C300.42,136.5,300.25,136.85,296.08,137.65z"/>
	<path class="st10" d="M265.46,98.77c-2.16,1.43-3.23,0.94-2.92-1.73c0.24-2.07,0.58-4.13,0.89-6.34c1.97,0.06,1.91,1.88,2.8,2.71
		C265.21,95.09,265.47,96.95,265.46,98.77z"/>
	<path class="st0" d="M265.46,98.77c0.01-1.82-0.25-3.68,0.77-5.35c1.26,1.13,2.8,2.37,2.44,4.1
		C268.46,98.54,266.73,98.78,265.46,98.77z"/>
</g>
</svg>
